<svg width="14" height="12" viewBox="0 0 14 12" fill="none" xmlns="http://www.w3.org/2000/svg">
<path d="M0.252765 0.26343C0.172738 0.341841 0.109161 0.435431 0.0657586 0.538721C0.0223559 0.64201 0 0.752922 0 0.86496C0 0.976998 0.0223559 1.08791 0.0657586 1.1912C0.109161 1.29449 0.172738 1.38808 0.252765 1.46649L4.97979 6.01807L0.272816 10.5696C0.125134 10.7296 0.0442538 10.9399 0.0467703 11.1576C0.0492868 11.3753 0.135009 11.5837 0.286349 11.7402C0.43769 11.8967 0.643173 11.9893 0.860639 11.9991C1.0781 12.0088 1.29106 11.935 1.45582 11.7928L7.43102 6.01807L1.45582 0.238366C1.37543 0.160567 1.28041 0.0994636 1.17627 0.0585827C1.07213 0.0177019 0.960925 -0.00214648 0.849072 0.000183796C0.737218 0.00251407 0.626934 0.0269767 0.524586 0.0721594C0.422238 0.117342 0.329854 0.18235 0.252765 0.26343Z" fill="#BCBCBC"/>
<path d="M6.26806 0.26343C6.18804 0.341841 6.12446 0.435431 6.08106 0.538721C6.03765 0.64201 6.0153 0.752922 6.0153 0.86496C6.0153 0.976998 6.03765 1.08791 6.08106 1.1912C6.12446 1.29449 6.18804 1.38808 6.26806 1.46649L10.9951 6.01807L6.28811 10.5696C6.14043 10.7296 6.05955 10.9399 6.06207 11.1576C6.06458 11.3753 6.15031 11.5837 6.30165 11.7402C6.45299 11.8967 6.65847 11.9893 6.87594 11.9991C7.0934 12.0088 7.30636 11.935 7.47112 11.7928L13.4463 6.01807L7.47112 0.238366C7.39072 0.160567 7.29571 0.0994636 7.19157 0.0585827C7.08743 0.0177019 6.97622 -0.00214648 6.86437 0.000183796C6.75252 0.00251407 6.64223 0.0269767 6.53988 0.0721594C6.43754 0.117342 6.34515 0.18235 6.26806 0.26343Z" fill="#BCBCBC"/>
</svg>
